<?xml version="1.0" encoding="UTF-8" standalone="no"?>
<!-- Created with Inkscape (http://www.inkscape.org/) -->

<svg
   version="1.1"
   id="svg2"
   width="356.29333"
   height="142.10667"
   viewBox="0 0 356.29333 142.10667"
   xmlns="http://www.w3.org/2000/svg"
   xmlns:svg="http://www.w3.org/2000/svg">
  <defs
     id="defs6" />
  <g
     id="g10"
     transform="matrix(1.3333333,0,0,-1.3333333,0,142.10667)">
    <g
       id="g12"
       transform="scale(0.1)"
       style="fill:#ffffff">
      <path
         d="M 72.9297,31.1836 H 30.3906 c -1.1289,-0.1484 -2.1093,0.8203 -1.9492,1.9492 V 140.406 c -0.1211,2.188 -1.8398,3.91 -4.0312,4.02 H 4.14063 c -2.19141,-0.071 -3.980474,-1.832 -4.062505,-4.02 V 6.73438 C 0.160156,4.54297 1.94922,2.74609 4.14063,2.67578 H 73.0117 c 1.0899,0 2.1094,0.45703 2.8477,1.27735 0.7422,0.75 1.1719,1.80078 1.1719,2.86328 V 27.043 c -0.0821,2.2304 -1.8321,3.9922 -4.0196,4.0625 z"
         style="fill:#ffffff;fill-opacity:1;fill-rule:nonzero;stroke:none"
         id="path14" />
      <path
         d="m 166.84,141.344 c -0.238,1.91 -1.961,3.281 -3.828,3.082 h -26.961 c -1.871,0.199 -3.59,-1.172 -3.821,-3.082 L 95.9414,6.34375 c -0.043,-0.27734 -0.043,-0.55078 0,-0.82031 0.0391,-0.66797 0.2695,-1.32813 0.6602,-1.87891 0.8593,-0.96875 2.1484,-1.48047 3.4764,-1.32812 h 21.211 c 1.91,-0.19141 3.59,1.17968 3.832,3.08984 l 5.617,20.81645 c 0.391,1.9921 1.453,3.0117 3.09,3.0117 h 30.742 c 0.821,0.1211 1.602,-0.2383 2.11,-0.8985 0.39,-0.6601 0.742,-1.3711 0.98,-2.1132 l 6.289,-20.81645 c 0.352,-1.83984 1.992,-3.12109 3.821,-3.08984 h 21.21 c 1.329,-0.15235 2.622,0.35937 3.481,1.32812 0.43,0.51172 0.699,1.21094 0.668,1.87891 0.031,0.26953 0.031,0.54297 0,0.82031 z m -8.36,-83.4377 h -18.601 c -1.168,0 -1.789,0.4296 -1.789,1.4101 -0.039,0.3086 -0.039,0.5781 0,0.8867 l 9.84,48.5199 c 0.039,0.511 0.468,0.863 0.98,0.82 h 0.352 c 0.508,0.043 0.898,-0.309 0.968,-0.82 l 9.692,-48.5199 c 0.039,-0.3086 0.039,-0.5781 0,-0.8867 0.59,-0.9805 0,-1.4101 -1.211,-1.4101 z"
         style="fill:#ffffff;fill-opacity:1;fill-rule:nonzero;stroke:none"
         id="path16" />
      <path
         d="m 376.211,133.645 c -4.332,4.101 -9.41,7.308 -15,9.531 -6.172,2.347 -12.731,3.519 -19.332,3.437 -6.488,0.121 -12.899,-1.09 -18.91,-3.508 -5.391,-2.269 -10.309,-5.55 -14.489,-9.691 -4.07,-4.141 -7.429,-8.949 -9.808,-14.258 -2.5,-5.433 -4.102,-11.211 -4.723,-17.191 -0.59,-4.3322 -1.019,-8.8986 -1.289,-13.7111 -0.238,-4.8008 -0.359,-9.8008 -0.359,-15 0,-5 0.16,-10 0.429,-15 0.321,-5 0.711,-9.4883 1.219,-13.4687 0.621,-5.9805 2.223,-11.7618 4.723,-17.1914 2.418,-5.3086 5.738,-10.1211 9.808,-14.2579 4.18,-4.17965 9.141,-7.49996 14.571,-9.76949 6.008,-2.42188 12.418,-3.6328163 18.898,-3.5117225 6.602,-0.0820313 13.172,1.0898425 19.34,3.4804725 5.59,2.14062 10.66,5.39062 15,9.48824 4.301,4.1407 7.691,9.0625 10,14.5704 2.422,5.9023 3.672,12.2226 3.59,18.5898 0,1.1016 -0.469,2.1094 -1.289,2.8516 -0.738,0.7812 -1.75,1.2109 -2.852,1.2109 h -20.226 c -1.133,-0.043 -2.153,-0.5 -2.852,-1.3633 -0.781,-0.7773 -1.211,-1.8398 -1.211,-2.9297 0,-2.1875 -0.508,-4.3789 -1.41,-6.3672 -0.98,-2.1132 -2.34,-4.0195 -4.059,-5.6328 -1.878,-1.6679 -3.992,-3.039 -6.289,-3.9804 -2.582,-1.0469 -5.351,-1.5977 -8.132,-1.5586 -5.149,-0.3477 -10.231,1.3711 -14.098,4.8007 -3.16,3.0508 -5.16,7.1485 -5.621,11.5704 -0.551,4.2109 -0.942,8.7812 -1.18,13.6289 -0.269,4.8398 -0.39,9.8398 -0.39,15 0,5 0.121,10 0.39,15 0.238,5 0.629,9.5703 1.18,13.7109 0.539,4.328 2.539,8.359 5.621,11.41 3.867,3.43 8.949,5.188 14.098,4.801 2.929,0.078 5.863,-0.473 8.562,-1.563 2.34,-0.98 4.449,-2.418 6.207,-4.218 1.641,-1.641 2.934,-3.559 3.832,-5.7 0.891,-1.96 1.32,-4.07 1.36,-6.222 0.082,-2.2189 1.839,-4.0197 4.07,-4.1369 h 20.23 c 1.09,0 2.11,0.4687 2.852,1.2891 0.738,0.75 1.168,1.7187 1.207,2.7808 0.082,6.399 -1.168,12.77 -3.59,18.668 -2.34,5.43 -5.738,10.352 -10.078,14.411 z"
         style="fill:#ffffff;fill-opacity:1;fill-rule:nonzero;stroke:none"
         id="path18" />
      <path
         d="M 514.801,144.426 H 494.57 c -2.191,-0.11 -3.941,-1.832 -4.058,-4.02 V 89.7852 c 0,-1.4493 -0.672,-2.1094 -1.961,-2.1094 H 457.73 c -1.128,-0.082 -2.07,0.9297 -1.949,2.1094 v 50.6208 c -0.121,2.188 -1.832,3.91 -4.019,4.02 H 431.48 c -2.179,-0.071 -3.941,-1.832 -4.019,-4.02 V 6.73438 c 0.078,-2.19141 1.84,-3.98829 4.019,-4.0586 h 19.301 c 1.207,0.07031 2.348,0.53906 3.278,1.27735 1.019,0.58984 1.679,1.67968 1.722,2.86328 V 57.4336 c -0.152,1.1328 0.821,2.1094 1.949,1.9492 h 30.821 c 1.179,0.1602 2.109,-0.8164 1.961,-1.9492 V 6.81641 c 0.117,-2.19141 1.867,-3.95313 4.058,-4.07032 h 20.231 c 2.23,0.07813 3.988,1.87891 4.07,4.07032 V 140.406 c -0.082,2.188 -1.84,3.949 -4.07,4.02 z"
         style="fill:#ffffff;fill-opacity:1;fill-rule:nonzero;stroke:none"
         id="path20" />
      <path
         d="m 620.039,141.344 c -0.238,1.91 -1.91,3.281 -3.828,3.082 h -27.152 c -1.868,0.199 -3.59,-1.172 -3.829,-3.082 L 548.949,6.34375 c -0.039,-0.27734 -0.039,-0.55078 0,-0.82031 0.031,-0.66797 0.27,-1.32813 0.66,-1.87891 0.86,-0.96875 2.153,-1.48047 3.481,-1.32812 h 21.211 c 1.871,-0.19141 3.59,1.17968 3.828,3.08984 l 5.621,20.81645 c 0.391,1.9921 1.41,3.0117 3.09,3.0117 h 30.738 c 0.82,0.1211 1.602,-0.2383 2.113,-0.8985 0.387,-0.6601 0.739,-1.3711 0.969,-2.1132 l 6.289,-20.81645 c 0.352,-1.83984 1.961,-3.12109 3.832,-3.08984 h 21.207 c 1.293,-0.15235 2.582,0.35937 3.442,1.32812 0.468,0.51172 0.699,1.21094 0.699,1.87891 0.043,0.26953 0.043,0.54297 0,0.82031 z m -8.32,-83.4377 h -18.59 c -1.219,0 -1.801,0.4296 -1.801,1.4101 -0.039,0.3086 -0.039,0.5781 0,0.8867 l 9.801,48.5199 c 0.043,0.511 0.512,0.863 0.98,0.82 h 0.391 c 0.469,0.043 0.898,-0.309 0.98,-0.82 l 9.68,-48.5199 c 0.039,-0.3086 0.039,-0.5781 0,-0.8867 0.36,-0.9805 -0.23,-1.4101 -1.441,-1.4101 z"
         style="fill:#ffffff;fill-opacity:1;fill-rule:nonzero;stroke:none"
         id="path22" />
      <path
         d="M 775.738,144.426 H 755.43 c -1.09,0 -2.149,-0.473 -2.852,-1.25 -0.777,-0.781 -1.207,-1.793 -1.207,-2.852 V 44.8945 c 0.039,-4.3711 -1.84,-8.5898 -5.16,-11.4414 -4.102,-3.3984 -9.301,-5.0781 -14.57,-4.7304 -5.192,-0.3477 -10.27,1.3711 -14.262,4.7304 -3.277,2.8907 -5.149,7.0703 -5.078,11.4414 v 95.5115 c -0.071,2.188 -1.871,3.949 -4.063,4.02 H 687.93 c -1.09,0 -2.149,-0.473 -2.852,-1.25 -0.777,-0.781 -1.207,-1.793 -1.207,-2.852 V 45.0547 c 0,-5.9414 1.168,-11.8399 3.508,-17.3086 2.312,-5.3906 5.672,-10.2305 9.922,-14.25 4.34,-4.14063 9.418,-7.42969 15,-9.69141 6.097,-2.37891 12.578,-3.601565 19.109,-3.519534 6.641,-0.082031 13.199,1.097654 19.371,3.519534 5.547,2.26172 10.668,5.55078 15,9.69141 4.219,4.0195 7.617,8.8594 9.957,14.25 2.391,5.4297 3.641,11.3672 3.602,17.3086 v 95.2693 c -0.078,2.192 -1.84,3.949 -4.031,4.031 z"
         style="fill:#ffffff;fill-opacity:1;fill-rule:nonzero;stroke:none"
         id="path24" />
      <path
         d="m 883.52,75.5234 c -0.321,0.6602 -0.508,1.4024 -0.59,2.1524 0.082,0.7773 0.269,1.5586 0.59,2.2578 l 26.32,58.7114 c 0.75,1.25 0.75,2.781 0,3.988 -0.66,1.09 -1.871,1.75 -3.16,1.722 h -22.93 c -1.801,-0.121 -3.32,-1.332 -3.828,-3.05 L 863.129,99.3555 c 0,-0.6719 -0.668,-0.9805 -1.219,-0.9805 -0.5,0 -0.89,0 -1.211,0.9805 L 843.91,141.305 c -0.898,1.988 -2.148,3.05 -3.832,3.05 H 817.07 c -1.25,0.028 -2.461,-0.632 -3.09,-1.722 -0.66,-1.25 -0.66,-2.738 0,-3.988 l 26.329,-58.4692 c 0.32,-0.75 0.55,-1.5313 0.632,-2.3516 -0.082,-0.6992 -0.281,-1.4414 -0.632,-2.1094 l -30,-67.49996 C 810,7.67578 809.801,7.00391 809.801,6.34375 c 0,-0.66797 0.199,-1.37109 0.59,-1.91797 0.66,-1.13281 1.879,-1.79297 3.16,-1.83203 h 23.828 c 2,-0.16016 3.832,1.17188 4.301,3.08203 l 18.91,47.92972 c 0.23,0.6679 0.621,0.9804 1.172,0.9804 0.539,0 0.968,-0.3125 1.207,-0.9804 l 18.91,-47.92972 c 0.461,-1.91015 2.262,-3.24219 4.25,-3.08203 H 910 c 1.25,-0.03906 2.461,0.58203 3.16,1.67969 0.391,0.54297 0.59,1.17187 0.59,1.87109 -0.039,0.71094 -0.199,1.44922 -0.551,2.07031 z"
         style="fill:#ffffff;fill-opacity:1;fill-rule:nonzero;stroke:none"
         id="path26" />
      <path
         d="m 1002.3,71.1445 h -55.46 c -1.102,0 -2.07,-0.4687 -2.781,-1.25 -0.821,-0.7382 -1.289,-1.7617 -1.289,-2.8515 V 46.7734 c 0,-1.0586 0.468,-2.0703 1.289,-2.7773 0.742,-0.7813 1.761,-1.2109 2.851,-1.1719 h 55.28 c 2.19,0 3.98,1.7617 4.02,3.9492 V 67.043 c 0.04,1.0898 -0.39,2.1523 -1.17,2.9297 -0.74,0.7031 -1.68,1.1328 -2.74,1.1718 z"
         style="fill:#ffffff;fill-opacity:1;fill-rule:nonzero;stroke:none"
         id="path28" />
      <path
         d="m 1132.66,116.855 c -2.39,5.27 -5.63,10.071 -9.57,14.29 -3.91,4.101 -8.52,7.421 -13.68,9.769 -5.35,2.379 -11.21,3.59 -17.11,3.512 h -42.42 c -2.22,-0.071 -3.98,-1.832 -4.06,-4.02 V 6.73438 c 0.08,-2.19141 1.84,-3.98829 4.06,-4.0586 h 42.42 c 5.9,-0.08203 11.76,1.12891 17.11,3.54688 5.16,2.3125 9.77,5.63284 13.68,9.73044 3.94,4.2227 7.18,9.0196 9.57,14.25 2.5,5.4297 4.1,11.25 4.72,17.1914 2.15,17.4219 2.15,35.0391 0,52.5 -0.62,5.8595 -2.22,11.5585 -4.72,16.9605 z m -23.6,-69.3823 c -0.47,-4.2969 -2.3,-8.3594 -5.19,-11.5586 -2.93,-3.211 -7.11,-5 -11.49,-4.8789 h -16.17 c -1.17,-0.1602 -2.11,0.8203 -1.95,1.9492 v 80.6996 c 0,1.371 0.66,2.109 1.95,2.109 h 16.17 c 4.38,0.121 8.56,-1.68 11.49,-4.879 2.89,-3.211 4.72,-7.269 5.19,-11.5585 2.11,-17.4297 2.11,-35.0391 0,-52.5 z"
         style="fill:#ffffff;fill-opacity:1;fill-rule:nonzero;stroke:none"
         id="path30" />
      <path
         d="m 1255.98,31.1836 h -48.09 c -1.13,-0.1484 -2.11,0.8203 -1.95,1.9492 v 24.3008 c -0.16,1.1328 0.82,2.1094 1.95,1.9492 h 45.59 c 1.09,-0.0273 2.15,0.4336 2.85,1.2227 0.78,0.7383 1.21,1.75 1.21,2.8476 v 20.2305 c 0,1.1016 -0.47,2.1094 -1.25,2.8516 -0.74,0.75 -1.76,1.1679 -2.81,1.2109 h -45.59 c -1.17,-0.0703 -2.07,0.9375 -1.95,2.0703 v 23.8676 c 0,1.371 0.66,2.109 1.95,2.109 h 47.27 c 1.05,0 2.07,0.473 2.77,1.25 0.74,0.781 1.17,1.801 1.17,2.852 v 20.281 c 0,1.047 -0.43,2.027 -1.17,2.769 -0.7,0.778 -1.72,1.25 -2.77,1.25 h -73.6 c -2.18,-0.082 -3.98,-1.84 -4.02,-4.019 V 6.49609 c 0.04,-2.17968 1.84,-3.9414 4.02,-4.02343 h 74.34 c 2.19,0.08203 3.98,1.84375 4.06,4.02343 V 26.7734 c -0.08,2.1797 -1.87,3.9414 -4.06,4.0196 z"
         style="fill:#ffffff;fill-opacity:1;fill-rule:nonzero;stroke:none"
         id="path32" />
      <path
         d="m 1353.71,71.1445 h -55.27 c -1.1,0 -2.07,-0.4687 -2.78,-1.25 -0.82,-0.7382 -1.28,-1.7617 -1.28,-2.8515 V 46.7734 c 0,-1.0586 0.46,-2.0703 1.28,-2.7773 0.75,-0.7813 1.76,-1.2109 2.82,-1.1719 h 55.31 c 2.19,0 3.98,1.7617 4.02,3.9492 V 67.043 c 0.04,1.0898 -0.39,2.1523 -1.21,2.9297 -0.74,0.7812 -1.8,1.2109 -2.89,1.1718 z"
         style="fill:#ffffff;fill-opacity:1;fill-rule:nonzero;stroke:none"
         id="path34" />
      <path
         d="m 1471.84,144.426 h -70.9 c -2.19,-0.071 -3.99,-1.832 -4.03,-4.02 V 6.73438 c 0.04,-2.19141 1.84,-3.98829 4.03,-4.0586 h 20.27 c 2.19,0.10938 3.91,1.86719 4.02,4.0586 V 57.3555 c -0.15,1.1406 0.82,2.1093 1.96,1.9609 h 42.54 c 1.05,0 2.11,0.4297 2.85,1.207 0.74,0.7422 1.21,1.7618 1.21,2.8516 v 20.3086 c 0,1.1016 -0.43,2.1094 -1.21,2.8516 -0.74,0.7812 -1.8,1.2109 -2.85,1.2109 h -42.54 c -1.17,-0.0703 -2.07,0.9375 -1.96,2.0703 v 23.8676 c 0,1.371 0.71,2.109 1.96,2.109 h 44.65 c 2.18,0.121 3.9,1.84 4.02,4.023 v 20.278 c -0.12,2.191 -1.84,3.941 -4.02,4.062 z"
         style="fill:#ffffff;fill-opacity:1;fill-rule:nonzero;stroke:none"
         id="path36" />
      <path
         d="m 1603.16,101.926 c -0.66,5.937 -2.26,11.719 -4.72,17.148 -2.46,5.309 -5.78,10.121 -9.92,14.262 -4.18,4.137 -9.11,7.418 -14.54,9.687 -12.07,4.68 -25.46,4.68 -37.5,0 -5.46,-2.269 -10.39,-5.55 -14.57,-9.687 -4.1,-4.141 -7.42,-8.953 -9.8,-14.262 -2.5,-5.429 -4.1,-11.211 -4.73,-17.148 -0.62,-4.3713 -1.05,-8.9416 -1.29,-13.7502 -0.23,-4.8008 -0.39,-9.8008 -0.39,-15 0,-5 0.16,-10 0.47,-15 0.31,-5 0.71,-9.4922 1.21,-13.4727 0.63,-5.9804 2.23,-11.7578 4.73,-17.1875 2.38,-5.2695 5.74,-10.1211 9.8,-14.2617 4.18,-4.17968 9.11,-7.49999 14.57,-9.71874 12.04,-4.69141 25.43,-4.69141 37.5,0 5.43,2.25781 10.36,5.53906 14.54,9.71874 4.1,4.1406 7.46,8.9492 9.92,14.2617 2.46,5.4297 4.06,11.2071 4.72,17.1875 0.59,4.1797 0.98,8.711 1.18,13.5508 0.19,4.8516 0.19,9.8516 0,15 0,5 0,10 0,15 0,5 -0.39,9.5703 -1.18,13.6721 z m -27.22,-43.2815 c 0,-5 -0.35,-9.5312 -1.06,-13.5898 -0.54,-4.3789 -2.5,-8.4414 -5.62,-11.5195 -8.36,-6.3711 -19.88,-6.3711 -28.21,0 -3.16,3.039 -5.15,7.1406 -5.62,11.5195 -0.55,4.2617 -0.98,8.7891 -1.21,13.668 -0.24,4.8437 -0.39,9.8437 -0.39,15 0,5 0.15,10 0.39,15 0.23,5 0.66,9.5703 1.21,13.7113 0.55,4.339 2.5,8.32 5.62,11.41 3.87,3.441 8.95,5.152 14.11,4.801 5.19,0.308 10.31,-1.481 14.18,-4.961 3.16,-3.051 5.15,-7.11 5.62,-11.481 0.55,-4.3397 0.9,-8.91 1.02,-13.7069 0.15,-4.8125 0.15,-9.8125 0,-15 0.23,-4.8125 0.15,-9.9609 -0.04,-14.8516 z"
         style="fill:#ffffff;fill-opacity:1;fill-rule:nonzero;stroke:none"
         id="path38" />
      <path
         d="m 1730.59,144.426 h -20.28 c -2.18,-0.11 -3.94,-1.832 -4.02,-4.02 V 64.2734 c 0,-0.7382 0,-1.1406 -0.7,-1.289 -0.67,-0.1602 -0.82,0 -1.14,0.8203 l -27.73,77.0313 c -0.27,0.98 -0.82,1.84 -1.56,2.539 -0.98,0.82 -2.23,1.211 -3.48,1.129 h -24.14 c -2.19,-0.078 -3.99,-1.828 -4.06,-4.059 V 6.81641 c 0.07,-2.19141 1.87,-3.99219 4.06,-4.07032 h 20.27 c 2.19,0.11719 3.91,1.87891 4.03,4.07032 V 76.9258 c 0,0.668 0,1.0586 0.7,1.207 0.66,0.1602 0.82,0 1.09,-0.8164 l 27.62,-71.09374 c 0.31,-0.89844 0.86,-1.71875 1.56,-2.33985 1.1,-0.8164 2.46,-1.25 3.83,-1.13672 h 23.95 c 2.18,0.07813 3.94,1.87891 4.02,4.07032 V 140.406 c -0.08,2.188 -1.84,3.949 -4.02,4.02 z"
         style="fill:#ffffff;fill-opacity:1;fill-rule:nonzero;stroke:none"
         id="path40" />
      <path
         d="m 1863.83,116.855 c -2.38,5.27 -5.63,10.071 -9.57,14.29 -3.91,4.101 -8.52,7.421 -13.67,9.769 -5.36,2.379 -11.21,3.59 -17.11,3.512 h -42.43 c -2.22,-0.071 -3.98,-1.832 -4.06,-4.02 V 6.73438 c 0.08,-2.19141 1.84,-3.98829 4.06,-4.0586 h 42.43 c 5.9,-0.08203 11.75,1.12891 17.11,3.54688 5.19,2.38281 9.84,5.78124 13.75,9.96094 3.94,4.1797 7.18,9.0195 9.57,14.2617 2.5,5.4297 4.1,11.211 4.72,17.1485 2.15,17.4609 2.15,35.082 0,52.5002 -0.7,5.82 -2.3,11.441 -4.8,16.761 z m -23.6,-69.3823 c -0.46,-4.2969 -2.3,-8.3594 -5.19,-11.5586 -2.93,-3.211 -7.11,-5 -11.49,-4.8789 h -16.17 c -1.13,-0.1602 -2.11,0.8203 -1.95,1.9492 v 80.6996 c 0,1.371 0.66,2.109 1.95,2.109 h 16.17 c 4.38,0.121 8.56,-1.68 11.49,-4.879 2.89,-3.211 4.73,-7.269 5.19,-11.5585 2.11,-17.4297 2.11,-35.0391 0,-52.5 z"
         style="fill:#ffffff;fill-opacity:1;fill-rule:nonzero;stroke:none"
         id="path42" />
      <path
         d="m 1985.27,76.1836 c -4.64,3.75 -9.88,6.7227 -15.54,8.7109 -6.33,2.3086 -12.85,4.1797 -19.5,5.6289 -4.6,0.7813 -8.98,2.543 -12.89,5.1524 -3.16,2.0703 -5.07,5.5902 -5.04,9.3792 -0.03,3.898 1.65,7.648 4.61,10.191 3.68,2.93 8.32,4.379 13.05,4.07 4.84,0.309 9.65,-1.371 13.24,-4.652 2.97,-2.809 4.65,-6.68 4.65,-10.738 v -3.051 c 0,-1.0898 0.47,-2.1094 1.21,-2.8516 0.71,-0.8203 1.72,-1.25 2.78,-1.289 h 20.35 c 1.05,0.039 2.03,0.4687 2.77,1.289 0.74,0.7422 1.21,1.7618 1.17,2.8516 v 3.051 c 0.04,5.777 -1.13,11.48 -3.43,16.75 -2.27,5.117 -5.51,9.73 -9.61,13.558 -4.34,3.981 -9.46,7.071 -15,9.059 -5.94,2.273 -12.23,3.402 -18.6,3.32 -6.36,0.082 -12.65,-1.047 -18.59,-3.32 -5.39,-2.07 -10.35,-5.16 -14.61,-9.059 -8.4,-7.738 -13.16,-18.601 -13.13,-30 -0.15,-5.859 1.06,-11.6402 3.52,-16.9488 2.3,-4.7305 5.55,-8.9102 9.61,-12.3125 4.3,-3.5196 9.18,-6.3672 14.37,-8.3985 5.79,-2.3008 11.76,-4.0586 17.86,-5.3086 5.74,-1.0625 11.25,-3.1601 16.21,-6.2109 3.2,-2.3516 5,-6.1289 4.8,-10.082 0.08,-4.6094 -1.91,-8.9766 -5.47,-11.9063 -4.1,-3.3203 -9.29,-5 -14.57,-4.7305 -5.43,-0.4296 -10.82,1.25 -15,4.7305 -3.32,3 -5.19,7.3399 -5.08,11.8281 v 6.0196 c 0,1.0898 -0.43,2.1093 -1.21,2.8515 -0.74,0.7383 -1.72,1.168 -2.77,1.2071 h -20.35 c -1.06,-0.0391 -2.03,-0.5079 -2.78,-1.2891 -0.74,-0.7383 -1.21,-1.7578 -1.17,-2.8477 v -6.0195 c -0.04,-5.9726 1.21,-11.9101 3.67,-17.3828 2.39,-5.3086 5.79,-10.1172 10.04,-14.0977 4.38,-4.06246 9.46,-7.26949 15,-9.45309 6.18,-2.34765 12.74,-3.519529 19.34,-3.437497 6.76,-0.082032 13.44,1.007817 19.8,3.199217 5.79,2.03125 11.1,5.1211 15.71,9.17967 4.33,3.9102 7.81,8.6719 10.19,14.0313 2.5,5.6601 3.75,11.789 3.67,17.9609 0.16,6.2891 -1.13,12.5391 -3.75,18.25 -2.22,5 -5.46,9.4492 -9.53,13.1172 z"
         style="fill:#ffffff;fill-opacity:1;fill-rule:nonzero;stroke:none"
         id="path44" />
      <path
         d="m 2062.15,1063.8 h -70.86 c -2.23,-0.08 -3.99,-1.87 -4.06,-4.05 V 926.066 c 0.07,-2.183 1.83,-3.941 4.06,-4.023 h 20.55 c 2.18,0.121 3.9,1.84 4.02,4.023 v 50.629 c -0.16,1.168 0.82,2.11 1.95,1.95 h 42.54 c 1.06,0 2.11,0.429 2.85,1.21 0.75,0.75 1.21,1.801 1.21,2.848 v 20.247 c 0,1.09 -0.43,2.1 -1.21,2.84 -0.74,0.78 -1.79,1.21 -2.85,1.21 h -42.54 c -1.17,-0.04 -2.07,0.95 -1.95,2.11 v 24.23 c 0,1.36 0.7,2.11 1.95,2.11 h 44.65 c 2.19,0.12 3.91,1.84 4.02,4.01 v 20.29 c -0.11,2.18 -1.83,3.93 -4.02,4.05 z"
         style="fill:#ffffff;fill-opacity:1;fill-rule:nonzero;stroke:none"
         id="path46" />
      <path
         d="m 2151.68,1060.71 c -0.23,1.88 -1.91,3.24 -3.83,3.09 h -27.07 c -1.87,0.15 -3.59,-1.21 -3.83,-3.09 l -36.29,-134.995 c -0.03,-0.27 -0.03,-0.539 0,-0.82 0.04,-0.7 0.28,-1.329 0.67,-1.872 0.86,-1.019 2.15,-1.527 3.47,-1.367 h 21.22 c 1.91,-0.16 3.59,1.168 3.82,3.09 l 5.63,20.859 c 0.39,1.989 1.44,2.961 3.08,2.961 h 30.75 c 0.82,0.118 1.6,-0.23 2.11,-0.89 0.39,-0.633 0.74,-1.332 0.97,-2.071 l 6.29,-20.859 c 0.35,-1.84 1.96,-3.133 3.83,-3.09 h 21.21 c 1.33,-0.16 2.62,0.348 3.48,1.367 0.43,0.512 0.7,1.172 0.66,1.872 0.04,0.281 0.04,0.55 0,0.82 z m -8.32,-83.464 h -18.59 c -1.22,0 -1.8,0.43 -1.8,1.399 -0.04,0.308 -0.04,0.628 0,0.898 l 9.84,48.567 c 0.04,0.46 0.47,0.84 0.98,0.82 h 0.35 c 0.51,0 0.9,-0.36 0.98,-0.82 l 9.68,-48.567 c 0.04,-0.27 0.04,-0.59 0,-0.898 0.36,-0.899 -0.23,-1.329 -1.44,-1.329 z"
         style="fill:#ffffff;fill-opacity:1;fill-rule:nonzero;stroke:none"
         id="path48" />
      <path
         d="m 2308.09,981.344 c -0.98,2.379 -2.19,4.609 -3.64,6.679 -1.29,1.993 -2.85,3.75 -4.65,5.352 -1.32,1.09 -1.32,2.301 0,3.668 6.65,6.837 10.51,15.937 10.83,25.507 0.03,5.47 -1.02,10.95 -3.09,16.02 -1.95,4.88 -4.84,9.34 -8.48,13.13 -3.63,3.78 -8.01,6.8 -12.81,8.87 -5.04,2.18 -10.51,3.27 -15.98,3.23 h -48.43 c -1.1,-0.03 -2.15,-0.51 -2.86,-1.28 -0.82,-0.75 -1.28,-1.77 -1.28,-2.86 V 926.035 c 0.07,-2.23 1.83,-3.992 4.06,-4.07 h 47.77 c 5.82,-0.082 11.64,0.98 17.07,3.129 10.16,4.019 18.01,12.222 21.6,22.5 2.03,5.82 3.01,11.871 2.93,18.011 0,2.649 -0.27,5.309 -0.82,7.891 -0.47,2.688 -1.25,5.309 -2.22,7.848 z m -62.5,51.996 c 0,1.36 0.7,2.11 1.95,2.11 h 21.09 c 3.48,0 6.84,-1.38 9.3,-3.84 2.58,-2.29 4.06,-5.61 4.02,-9.06 0,-3.51 -1.44,-6.87 -4.02,-9.26 -2.46,-2.5 -5.78,-3.93 -9.3,-3.93 h -21.09 c -1.13,-0.16 -2.11,0.77 -1.95,1.94 z m 33.47,-78.285 c -2.54,-3.09 -6.36,-4.809 -10.35,-4.649 h -21.09 c -1.14,-0.203 -2.11,0.778 -1.96,1.91 v 26.489 c 0,1.441 0.67,2.109 1.96,2.109 h 21.09 c 3.99,0.121 7.81,-1.598 10.35,-4.73 5.16,-6.129 5.16,-15.079 0,-21.211 z"
         style="fill:#ffffff;fill-opacity:1;fill-rule:nonzero;stroke:none"
         id="path50" />
      <path
         d="m 2349.34,922.043 h 68.82 c 1.1,0 2.15,0.473 2.86,1.25 0.78,0.781 1.21,1.801 1.21,2.852 v 20.039 c -0.08,2.191 -1.84,3.992 -4.07,4.062 h -42.5 c -1.17,-0.152 -2.14,0.789 -1.95,1.957 v 107.547 c -0.12,2.18 -1.87,3.93 -4.06,4.05 h -20.31 c -2.23,-0.08 -3.99,-1.87 -4.07,-4.05 V 926.066 c 0.08,-2.183 1.84,-3.941 4.07,-4.023 z"
         style="fill:#ffffff;fill-opacity:1;fill-rule:nonzero;stroke:none"
         id="path52" />
      <path
         d="m 2445.47,922.043 h 21.21 c 1.91,-0.188 3.59,1.172 3.83,3.051 l 5.62,20.859 c 0.43,1.992 1.45,3 3.09,3 h 30.74 c 0.82,0.121 1.64,-0.23 2.11,-0.887 0.43,-0.671 0.74,-1.371 0.98,-2.113 l 6.29,-20.859 c 0.39,-1.801 1.99,-3.09 3.82,-3.051 h 21.18 c 1.29,-0.16 2.57,0.352 3.43,1.332 0.47,0.508 0.71,1.211 0.67,1.871 0.04,0.277 0.04,0.547 0,0.82 l -36.06,135.004 c -0.23,1.91 -1.95,3.29 -3.83,3.09 h -27.07 c -1.91,0.2 -3.59,-1.18 -3.82,-3.09 l -36.33,-135.004 c 0,-0.273 0,-0.543 0,-0.82 0.04,-0.66 0.27,-1.32 0.7,-1.871 0.86,-0.98 2.15,-1.492 3.44,-1.332 z m 38.48,57.5 9.84,48.567 c 0.04,0.46 0.47,0.84 0.94,0.82 h 0.39 c 0.47,0 0.9,-0.36 0.97,-0.82 l 9.69,-48.567 c 0.04,-0.27 0.04,-0.59 0,-0.898 0,-0.899 -0.62,-1.399 -1.8,-1.399 h -18.63 c -1.17,0 -1.8,0.43 -1.8,1.399 0.24,0.351 0.47,0.671 0.79,0.898 z"
         style="fill:#ffffff;fill-opacity:1;fill-rule:nonzero;stroke:none"
         id="path54" />
      <path
         d="m 2671.29,973.645 c -0.55,2.539 -1.33,5.078 -2.31,7.5 -0.97,2.351 -2.18,4.57 -3.63,6.679 -1.29,1.961 -2.85,3.75 -4.65,5.309 -1.32,1.14 -1.32,2.312 0,3.683 6.64,6.864 10.51,15.934 10.82,25.504 0.04,5.5 -1.01,10.93 -3.08,16.06 -1.96,4.87 -4.85,9.32 -8.48,13.12 -3.63,3.75 -8.01,6.75 -12.81,8.82 -5.04,2.2 -10.47,3.29 -15.98,3.25 h -48.32 c -1.05,-0.03 -2.11,-0.46 -2.81,-1.28 -0.82,-0.72 -1.29,-1.77 -1.29,-2.86 V 925.793 c 0.08,-2.227 1.84,-3.977 4.06,-4.059 h 47.78 c 5.82,-0.078 11.64,1.012 17.07,3.161 10.15,3.988 18,12.23 21.6,22.5 2.03,5.781 3.01,11.878 2.93,18.011 0,2.77 -0.31,5.508 -0.9,8.239 z m -64.81,59.995 c 0,1.33 0.71,2.07 1.96,2.07 h 21.09 c 3.48,0.04 6.84,-1.33 9.3,-3.78 2.58,-2.34 4.06,-5.63 4.02,-9.11 0,-3.5 -1.44,-6.82 -4.02,-9.21 -2.46,-2.54 -5.78,-3.95 -9.3,-3.98 h -21.09 c -1.14,-0.17 -2.11,0.82 -1.96,1.94 z m 33.48,-78.316 c -2.54,-3.039 -6.37,-4.758 -10.35,-4.648 h -21.09 c -1.14,-0.153 -2.11,0.82 -1.96,1.957 v 26.48 c 0,1.41 0.67,2.11 1.96,2.11 h 21.09 c 3.98,0.121 7.81,-1.637 10.35,-4.727 5.16,-6.133 5.16,-15.113 0,-21.25 z"
         style="fill:#ffffff;fill-opacity:1;fill-rule:nonzero;stroke:none"
         id="path56" />
      <path
         d="m 2653.28,601.184 -74.53,-14.489 c -8.59,-1.992 -14.77,-9.531 -15,-18.359 V 158.684 c 0.16,-4.528 -3.05,-8.438 -7.5,-9.219 l -195,-37.891 c -8.59,-1.988 -14.77,-9.531 -15,-18.3592 V 15.4453 c -0.47,-8.16014 7.03,-14.492175 15,-12.62108 L 2653.16,59.625 c 8.6,1.9883 14.73,9.5313 15,18.3594 V 588.723 c 0.39,8.05 -7.03,14.261 -14.88,12.461 z"
         style="fill:#ffffff;fill-opacity:1;fill-rule:nonzero;stroke:none"
         id="path58" />
      <path
         d="m 268.52,841.184 -156.61,-30 c -4.058,-1.329 -8.082,2.07 -7.5,6.289 v 92.703 c -0.148,4.527 3.051,8.469 7.5,9.25 l 194.418,37.5 c 8.594,2 14.723,9.527 15,18.359 v 77.625 c 0.473,8.16 -7.066,14.48 -15,12.61 L 15.0391,1008.88 c -8.58988,-2 -14.769569,-9.525 -15.0000375,-18.357 V 479.785 C -0.429688,471.613 7.07031,465.285 15.0391,467.164 l 74.5312,14.492 c 8.5899,1.989 14.7697,9.528 14.9997,18.36 v 193.519 c -0.16,4.488 3.051,8.43 7.5,9.211 l 156.602,30.43 c 8.598,2.027 14.769,9.57 15,18.398 v 77.309 c 0.277,8.121 -7.262,14.25 -15.152,12.301 z"
         style="fill:#ffffff;fill-opacity:1;fill-rule:nonzero;stroke:none"
         id="path60" />
    </g>
  </g>
</svg>
