<?xml version="1.0" encoding="UTF-8" standalone="no"?>
<!-- Created with Inkscape (http://www.inkscape.org/) -->

<svg
   version="1.1"
   id="svg2"
   width="1631.4268"
   height="451.32727"
   viewBox="0 0 1631.4268 451.32727"
   xmlns="http://www.w3.org/2000/svg"
   xmlns:svg="http://www.w3.org/2000/svg">
  <defs
     id="defs6" />
  <g
     id="g10"
     transform="matrix(1.3333333,0,0,1.3333333,0,1.0616515e-5)">
    <g
       id="g12">
      <path
         d="m 118.66,337.734 c -1.359,-0.394 -3.324,-1.894 -4.5,-3.441 -1.926,-2.527 -2.086,-3.25 -2.047,-9.254 0.047,-6.516 0.047,-6.516 -7.226,-6.957 -8.016,-0.488 -17.149,-1.875 -18.317,-2.785 -0.414,-0.32 -3.113,-1.145 -6,-1.836 -2.886,-0.691 -6.523,-1.734 -8.078,-2.324 -1.554,-0.59 -3.539,-1.071 -4.406,-1.071 -2.672,0 -10.625,-3.859 -13.363,-6.484 -2.391,-2.289 -2.602,-2.848 -2.625,-6.988 -0.028,-4.285 0.121,-4.653 3.039,-7.571 3.957,-3.96 7.496,-4.57 13.625,-2.335 2.371,0.859 6.668,2.113 9.551,2.781 2.886,0.668 5.585,1.469 6,1.785 0.417,0.312 3.457,1.144 6.757,1.844 3.301,0.699 7.035,1.597 8.297,1.992 1.262,0.398 4.891,0.941 8.063,1.207 l 5.765,0.488 -0.015,-38.922 c -0.012,-21.406 -0.34,-47.023 -0.735,-56.922 -0.769,-19.371 -2.015,-34.527 -3,-36.441 -0.336,-0.656 -0.836,-3.187 -1.109,-5.625 -0.797,-7.07 -1.969,-13.371 -2.637,-14.184 -0.523,-0.636 -1.82,-5.777 -3.5,-13.875 -0.215,-1.031 -1.035,-3.308 -1.82,-5.054 -0.789,-1.75 -1.434,-3.953 -1.434,-4.895 0,-0.945 -0.492,-2.422 -1.093,-3.281 -0.606,-0.863 -1.981,-4.227 -3.059,-7.481 C 93.711,106.852 91.637,101.66 90.18,98.566 87.219,92.273 81.262,79.711 78.797,74.566 77.91,72.711 76.328,69.84 75.285,68.191 74.242,66.539 72.691,63.715 71.84,61.91 70.992,60.105 68.98,56.594 67.371,54.105 65.762,51.617 64.445,49.215 64.445,48.762 64.441,48.309 63.766,46.832 62.941,45.477 61.266,42.734 62.52,41.863 51.637,53.34 49.992,55.074 47.23,58.281 45.5,60.465 41.617,65.363 34.445,76.121 34.445,77.047 c 0,0.371 -0.976,1.91 -2.168,3.418 -3.097,3.91 -9.832,17.34 -9.832,19.605 0,1.051 -0.511,2.641 -1.132,3.532 -0.625,0.894 -1.469,3.414 -1.875,5.605 -0.403,2.191 -1.047,4.66 -1.43,5.484 -0.383,0.825 -0.903,2.457 -1.16,3.625 -0.254,1.172 -1.278,2.942 -2.274,3.938 -1.328,1.328 -2.633,1.812 -4.902,1.812 -2.391,0 -3.57,-0.48 -5.211,-2.121 -1.777,-1.777 -2.191,-2.953 -2.582,-7.312 -0.258,-2.856 -0.797,-6.231 -1.199,-7.496 -1.047,-3.293 -0.864,-7.211 0.414,-8.903 0.605,-0.8 1.101,-2.5 1.101,-3.773 0,-3.164 13.235,-29.313 18.469,-36.496 1.395,-1.91 2.531,-3.695 2.531,-3.965 0,-0.621 11.293,-14.332 14.258,-17.309 1.235,-1.238 2.242,-2.679 2.242,-3.207 0,-0.527 0.852,-1.281 1.891,-1.675 1.039,-0.395 2.211,-1.567 2.605,-2.606 0.395,-1.039 1.18,-1.887 1.747,-1.887 0.562,0 1.628,-0.668 2.367,-1.48 1.289,-1.426 1.265,-1.629 -0.637,-5.645 -1.926,-4.07 -2.523,-9.113 -1.523,-12.847 0.523,-1.946 3.21,-3.25 7.82,-3.797 5.16,-0.609 7.086,0.613 12.422,7.891 0.293,0.402 3.554,-1.442 5.199,-2.934 1.527,-1.387 13.266,-5.926 15.359,-5.941 0.621,-0.004 2.137,-0.571 3.375,-1.262 1.864,-1.039 4.575,-1.262 15.75,-1.297 12.618,-0.035 13.696,0.07 16.489,1.637 1.644,0.922 3.89,1.675 4.988,1.675 1.101,0 3.805,1.215 6.012,2.7 2.207,1.488 5.023,3.222 6.261,3.859 2.352,1.211 4.586,2.797 9.227,6.566 1.527,1.239 3.426,2.61 4.223,3.051 0.8,0.438 1.812,1.449 2.25,2.25 0.441,0.797 2.191,3.137 3.886,5.199 2.711,3.297 6.188,9.715 8.657,15.981 1.312,3.34 2.32,10.652 2.339,17.019 0.024,7.188 -1.718,15.86 -4.218,21 -1.004,2.063 -2.598,5.532 -3.543,7.711 -0.95,2.18 -2.168,4.328 -2.707,4.778 -0.543,0.449 -0.989,1.238 -0.989,1.75 0,0.683 3.293,1.035 12.563,1.343 6.91,0.227 13.574,0.754 14.812,1.168 1.239,0.414 5.457,1.336 9.375,2.051 3.918,0.711 7.801,1.535 8.625,1.836 0.825,0.297 3.356,1.086 5.625,1.746 10.5,3.063 17.121,5.223 19.875,6.489 1.653,0.757 5.871,2.628 9.375,4.16 3.508,1.531 7.051,3.375 7.875,4.101 0.825,0.727 2.231,1.539 3.121,1.809 0.895,0.269 2.879,1.492 4.418,2.711 1.536,1.222 3.094,2.222 3.457,2.222 1.481,0 15,11.59 22.43,19.227 8.785,9.035 18.508,20.34 20.125,23.406 0.578,1.094 2.352,3.559 3.938,5.469 1.589,1.914 2.886,3.957 2.886,4.543 0,0.586 0.883,2.227 1.961,3.644 1.078,1.422 2.641,4.106 3.477,5.961 1.781,3.961 4.156,7.5 5.035,7.5 0.344,0 0.797,-1.265 1.012,-2.812 0.836,-6.031 3.617,-19.285 4.203,-20.027 0.34,-0.434 0.859,-2.129 1.156,-3.774 0.652,-3.594 4.945,-17 6.617,-20.648 0.66,-1.438 1.719,-4.434 2.36,-6.657 0.64,-2.222 1.961,-5.089 2.933,-6.375 0.977,-1.285 2.492,-3.964 3.371,-5.957 0.879,-1.992 2.446,-4.632 3.485,-5.871 1.043,-1.234 1.89,-2.648 1.89,-3.144 0,-1.438 11.243,-12.063 15.762,-14.899 2.273,-1.422 6.492,-3.722 9.375,-5.105 4.828,-2.317 5.934,-2.539 14.098,-2.844 6.804,-0.25 9.496,-0.062 11.625,0.817 1.519,0.625 4.148,1.511 5.836,1.96 1.687,0.454 4.218,1.657 5.625,2.672 1.406,1.016 3.566,2.321 4.804,2.899 2.512,1.172 9.375,8.199 9.375,9.597 0,0.497 0.86,2.028 1.91,3.403 2.743,3.594 5.118,12.332 5.067,18.64 -0.109,13.637 -4.242,24.598 -12.258,32.5 -7.43,7.325 -10.68,9.68 -19.73,14.286 -9.278,4.722 -12.871,5.816 -22.614,6.878 -3.3,0.36 -7.269,0.875 -8.82,1.141 -1.992,0.344 -3.98,0.039 -6.75,-1.035 -2.16,-0.832 -5.094,-1.719 -6.516,-1.969 -2.754,-0.476 -6.039,-3.027 -6.039,-4.683 0,-0.547 -0.297,-0.993 -0.656,-0.993 -1.289,0 -2.16,1.946 -3.18,7.125 -1.472,7.461 -1.461,41.696 0.016,45.375 2.582,6.43 9.078,14.039 18.129,21.239 4.5,3.578 13.18,7.465 20.191,9.043 3.094,0.699 6.68,1.601 7.969,2.007 3.949,1.247 23.313,2.141 30.406,1.407 6.2,-0.641 8.282,-1.328 17.735,-5.879 1.367,-0.656 4.695,-3.153 7.402,-5.551 5.063,-4.492 14.488,-15.816 14.488,-17.41 0,-0.496 0.969,-2.121 2.153,-3.609 1.187,-1.489 3.41,-5.672 4.941,-9.29 1.535,-3.621 3.406,-7.933 4.156,-9.582 0.754,-1.652 1.61,-4.183 1.899,-5.625 0.289,-1.445 0.832,-3.007 1.207,-3.472 0.375,-0.469 1.183,-2.832 1.797,-5.25 0.617,-2.422 1.441,-5.078 1.836,-5.903 0.394,-0.824 1.554,-4.707 2.574,-8.625 2.715,-10.418 4.562,-16.675 5.43,-18.375 0.421,-0.824 1.359,-3.863 2.085,-6.75 0.727,-2.886 1.961,-6.683 2.747,-8.429 0.785,-1.75 1.425,-3.434 1.425,-3.739 0,-0.308 0.817,-2.253 1.809,-4.324 0.992,-2.066 3.059,-6.629 4.59,-10.133 3.785,-8.66 5.562,-12.086 7.242,-13.957 0.781,-0.871 1.75,-2.773 2.152,-4.23 0.496,-1.785 2.492,-4.316 6.16,-7.793 4.157,-3.941 6.262,-5.363 9,-6.082 1.961,-0.516 4.493,-0.938 5.622,-0.938 1.128,0 4.082,0.961 6.562,2.133 3.184,1.508 5.953,3.692 9.418,7.434 3.969,4.289 5.637,6.93 8.727,13.805 4.144,9.222 7.316,18.539 8.125,23.878 0.285,1.856 0.824,3.758 1.207,4.231 0.379,0.473 0.929,2.273 1.226,4.004 0.602,3.523 1.899,4.379 2.297,1.515 0.141,-1.031 0.52,-2.214 0.84,-2.625 0.316,-0.414 0.996,-2.605 1.512,-4.875 0.511,-2.269 1.332,-4.8 1.82,-5.625 0.484,-0.824 1.336,-3.355 1.883,-5.625 0.551,-2.269 1.422,-4.968 1.933,-6 0.512,-1.031 1.555,-3.902 2.317,-6.375 0.765,-2.476 2.324,-6.308 3.472,-8.515 1.149,-2.207 2.086,-4.446 2.086,-4.969 0,-0.527 0.532,-1.398 1.18,-1.937 0.648,-0.54 1.875,-2.352 2.727,-4.028 2.32,-4.586 8.437,-11.972 12.757,-15.414 2.11,-1.68 5.305,-3.422 7.098,-3.875 1.797,-0.453 3.449,-1.117 3.672,-1.48 0.531,-0.86 10.992,-0.852 13.219,0.007 0.949,0.364 3.625,1.211 5.945,1.883 2.32,0.672 5.488,2.231 7.039,3.461 1.551,1.231 3.215,2.242 3.699,2.242 1.43,0 15.532,15.086 18.789,20.102 3.469,5.336 5.157,8.477 8.16,15.195 1.188,2.653 2.93,6.516 3.872,8.578 3.406,7.461 7.093,16.918 7.097,18.196 0,0.715 0.633,2.336 1.403,3.597 0.769,1.262 1.996,4.977 2.722,8.25 0.727,3.278 1.781,7.02 2.348,8.321 0.562,1.297 1.023,2.773 1.023,3.273 0,0.914 1.957,7.313 3.094,10.113 0.336,0.825 1.274,4.032 2.082,7.125 1.59,6.067 3.016,10.45 5.801,17.825 0.976,2.586 1.773,5.191 1.773,5.793 0,2.113 9.121,21.449 10.746,22.785 0.692,0.566 1.254,1.48 1.254,2.031 0,1.293 3.785,4.816 5.176,4.816 2.106,0 7.477,3.786 9.102,6.418 1.242,2.008 1.558,3.411 1.265,5.594 -0.57,4.277 -3.035,7.293 -6.765,8.293 -1.735,0.465 -3.825,1.102 -4.653,1.414 -0.824,0.317 -2.004,0.297 -2.625,-0.035 -0.617,-0.336 -2.668,-0.809 -4.558,-1.051 -2.899,-0.371 -4.266,-1.199 -8.813,-5.347 -2.957,-2.7 -6.535,-6.653 -7.949,-8.786 -1.414,-2.132 -4.152,-7.421 -6.082,-11.75 -1.93,-4.332 -3.961,-8.746 -4.516,-9.808 -0.554,-1.063 -1.832,-4.438 -2.839,-7.5 -1.004,-3.063 -2.176,-6.41 -2.598,-7.442 -0.422,-1.031 -1.684,-4.914 -2.801,-8.625 -1.117,-3.714 -2.476,-8.101 -3.023,-9.75 -0.543,-1.652 -1.543,-5.195 -2.223,-7.875 -0.676,-2.683 -1.508,-5.214 -1.848,-5.625 -0.34,-0.414 -1.351,-3.789 -2.25,-7.5 -0.894,-3.714 -1.894,-7.089 -2.215,-7.5 -0.324,-0.414 -0.832,-2.097 -1.128,-3.738 -0.297,-1.644 -1.184,-4.32 -1.973,-5.953 -0.789,-1.633 -1.434,-3.398 -1.434,-3.926 0,-1.133 -1.621,-4.918 -8.195,-19.101 -1.266,-2.731 -2.309,-5.262 -2.32,-5.625 -0.012,-0.586 -1.918,-3.602 -7.762,-12.282 -1.855,-2.757 -7.406,-7.996 -12.051,-11.375 -1.637,-1.191 -4.277,-2.207 -6.543,-2.519 -3.121,-0.43 -4.144,-0.262 -5.738,0.926 -2.133,1.593 -5.594,6.468 -9.738,13.718 -2.305,4.028 -5.426,11.442 -6.153,14.614 -0.472,2.058 -1.179,4.125 -1.57,4.597 -0.395,0.473 -1.227,2.821 -1.848,5.219 -0.625,2.395 -1.414,4.715 -1.757,5.152 -0.563,0.723 -2.254,7.411 -3.512,13.891 -0.274,1.43 -0.778,3.117 -1.117,3.75 -0.34,0.633 -1.157,3.852 -1.821,7.152 -0.66,3.297 -1.5,6.672 -1.863,7.5 -0.559,1.274 -1.434,5.965 -4.129,22.125 -0.242,1.442 -0.758,4.313 -1.148,6.375 -0.391,2.063 -0.91,13.704 -1.16,25.875 -0.247,12.168 -0.766,23.164 -1.153,24.438 -0.387,1.273 -1.73,3.297 -2.988,4.5 -2.066,1.98 -2.766,2.187 -7.422,2.187 -4.441,0 -5.418,-0.257 -7.176,-1.875 -3.672,-3.386 -4.801,-7.046 -4.816,-15.64 -0.024,-9.707 -1.344,-28.867 -2.231,-32.36 -0.367,-1.445 -1.082,-6.675 -1.582,-11.625 -1.593,-15.683 -2.05,-19.418 -2.808,-22.875 -0.406,-1.859 -1.317,-7.425 -2.024,-12.375 -0.703,-4.953 -1.558,-9.843 -1.898,-10.875 -0.34,-1.031 -1.016,-3.734 -1.504,-6 -0.488,-2.269 -1.383,-5.644 -1.992,-7.5 -0.606,-1.859 -1.559,-4.964 -2.113,-6.91 -1.571,-5.465 -6.766,-16.047 -8.137,-16.574 -0.828,-0.316 -1.231,-0.074 -1.231,0.746 0,0.672 -0.855,2.344 -1.902,3.715 -1.047,1.375 -3.773,6.637 -6.059,11.695 -2.285,5.063 -4.757,10.383 -5.496,11.828 -0.738,1.442 -1.734,4.313 -2.215,6.375 -0.48,2.063 -1.324,4.762 -1.875,6 -1.71,3.844 -3.511,9.465 -5.402,16.875 -2.269,8.891 -3.84,14.305 -5.535,19.125 -0.727,2.063 -2.586,7.629 -4.133,12.375 -1.543,4.743 -3.406,9.805 -4.137,11.25 -0.726,1.442 -2.742,5.829 -4.472,9.75 -1.735,3.918 -3.645,7.672 -4.246,8.344 -0.602,0.672 -1.836,2.598 -2.746,4.285 -5.032,9.313 -19.207,24.637 -27.344,29.559 -2.559,1.547 -4.953,2.812 -5.324,2.812 -0.371,0 -3.164,1.125 -6.207,2.508 -6.586,2.985 -8.188,3.422 -16.032,4.364 -10.715,1.289 -16.32,1.523 -17.925,0.753 -0.864,-0.418 -5.622,-0.961 -10.575,-1.211 -4.949,-0.25 -11.191,-0.925 -13.875,-1.503 -13.074,-2.817 -23.933,-7.387 -32.543,-13.7 -6.683,-4.898 -16.574,-13.957 -17.929,-16.425 -1.262,-2.289 -6.614,-10.036 -6.938,-10.036 -0.148,0 -0.976,1.602 -1.84,3.563 -1.808,4.101 -4.382,8.098 -8.414,13.039 -1.558,1.914 -2.836,3.777 -2.836,4.145 0,0.843 -11.293,12.097 -13.304,13.257 -0.828,0.477 -3.789,2.793 -6.578,5.145 -2.786,2.351 -6.286,4.84 -7.778,5.531 -1.492,0.692 -3.762,2.039 -5.047,2.996 -3.57,2.664 -14.836,7.641 -20.418,9.02 -2.75,0.679 -5.336,1.488 -5.75,1.797 -0.41,0.304 -4.125,1.312 -8.25,2.234 -4.125,0.922 -8.172,1.941 -9,2.27 -1.539,0.617 -9.75,1.82 -18.375,2.699 -2.679,0.273 -5.211,0.754 -5.625,1.066 -1.437,1.094 -24.187,2.438 -49.125,2.899 l -25.125,0.464 -0.566,4.606 c -0.313,2.535 -1.043,5.742 -1.625,7.125 -1.457,3.461 -4.731,6.348 -8.309,7.32 -1.648,0.446 -3.168,0.785 -3.375,0.75 -0.207,-0.035 -1.457,-0.375 -2.785,-0.758 z m 60.91,-41.976 c 4.125,-0.356 9.188,-0.828 11.25,-1.051 2.063,-0.223 8.981,-0.937 15.375,-1.59 6.395,-0.652 12.192,-1.48 12.883,-1.84 0.692,-0.359 4.156,-1.015 7.695,-1.457 3.543,-0.441 7.368,-1.168 8.497,-1.617 1.128,-0.449 4.246,-1.414 6.925,-2.148 2.68,-0.731 6.563,-1.926 8.625,-2.657 2.063,-0.726 5.25,-1.847 7.082,-2.484 1.832,-0.641 4.996,-2.309 7.032,-3.707 2.039,-1.402 4.757,-2.992 6.043,-3.531 3.941,-1.656 16.539,-12.742 21.386,-18.813 2.52,-3.16 4.582,-6.097 4.582,-6.535 0,-0.433 0.696,-1.531 1.543,-2.433 2.278,-2.426 3.688,-8.79 3.7,-16.68 0.007,-7.094 -1.54,-15.879 -3.434,-19.516 -0.578,-1.105 -1.051,-2.554 -1.055,-3.219 0,-0.667 -0.676,-2.066 -1.496,-3.113 -0.824,-1.043 -2.18,-3.492 -3.015,-5.445 -0.836,-1.953 -2.36,-4.547 -3.383,-5.762 -1.024,-1.215 -1.86,-2.711 -1.86,-3.32 0,-1.137 -4.152,-6.828 -9.187,-12.598 -1.547,-1.769 -2.813,-3.484 -2.813,-3.804 0,-0.68 -5.437,-7.204 -10.867,-13.04 -3.683,-3.96 -12.41,-11.308 -14.633,-12.32 -0.617,-0.281 -2.644,-1.699 -4.5,-3.148 -1.855,-1.45 -4.554,-3.168 -6,-3.821 -1.445,-0.652 -3.3,-1.781 -4.125,-2.511 -1.293,-1.137 -5.156,-2.973 -15,-7.118 -1.238,-0.519 -4.273,-1.542 -6.75,-2.269 -2.476,-0.731 -6.019,-1.93 -7.875,-2.668 -1.855,-0.738 -5.316,-1.699 -7.691,-2.137 -2.371,-0.433 -4.996,-1.156 -5.828,-1.601 -2.336,-1.25 -12.473,-2.336 -28.106,-3.016 -16.902,-0.73 -24.855,-1.656 -27.953,-3.258 -3.722,-1.926 -7.543,-6.98 -8.105,-10.722 -0.684,-4.567 1.09,-8.836 6.515,-15.664 2.43,-3.055 4.418,-5.848 4.418,-6.204 0,-0.351 0.629,-1.211 1.395,-1.906 0.769,-0.695 1.98,-2.687 2.695,-4.43 0.715,-1.742 1.758,-4.175 2.32,-5.414 1.637,-3.593 2.618,-10.738 2.106,-15.293 -0.938,-8.324 -7.828,-19.339 -15.488,-24.761 -3.153,-2.231 -9.836,-5.684 -14.778,-7.637 -3.523,-1.391 -19.453,-1.414 -24,-0.035 -3.828,1.16 -4.695,1.492 -10.687,4.125 -2.371,1.039 -4.313,2.265 -4.313,2.723 0,0.457 0.844,2.074 1.875,3.589 1.032,1.52 1.875,3.141 1.875,3.61 0,0.465 1.047,2.16 2.328,3.761 1.282,1.606 3.653,5.45 5.27,8.543 1.617,3.094 3.961,7.313 5.207,9.375 1.246,2.063 2.77,4.93 3.387,6.375 0.617,1.442 2.582,5.661 4.363,9.375 1.781,3.711 4.684,9.954 6.445,13.875 1.762,3.918 4,8.688 4.977,10.602 0.976,1.91 1.773,4.105 1.773,4.875 0,0.77 1.012,3.535 2.25,6.152 1.239,2.614 2.25,5.41 2.25,6.215 0,0.801 0.481,2.207 1.071,3.117 0.929,1.446 1.839,4.582 4.949,17.039 0.363,1.442 1.008,4.313 1.437,6.375 0.43,2.063 1.086,4.422 1.453,5.25 0.688,1.528 1.887,10.489 2.77,20.625 0.266,3.094 0.766,5.969 1.105,6.395 1.129,1.402 2.208,40.703 2.211,80.668 0.004,21.687 0.231,39.66 0.504,39.937 0.707,0.707 34.375,0.469 43.375,-0.308 z M 357.695,172.949 c 3.094,-0.457 7.371,-0.992 9.504,-1.191 2.137,-0.195 4.496,-0.68 5.25,-1.07 0.754,-0.391 3.227,-1.133 5.496,-1.649 5.555,-1.262 10.817,-4.16 17.594,-9.695 9.949,-8.133 11.836,-12 10.922,-22.387 -0.383,-4.34 -1,-6.848 -2.023,-8.25 -0.809,-1.109 -1.684,-2.598 -1.95,-3.305 -0.261,-0.711 -1.59,-1.816 -2.949,-2.457 -1.355,-0.644 -3.312,-1.656 -4.344,-2.254 -4.515,-2.613 -15.871,-2.269 -20.254,0.61 -1.375,0.902 -3.035,1.976 -3.687,2.39 -3.645,2.305 -9.641,10.196 -12.25,16.125 -0.82,1.856 -2.125,4.075 -2.906,4.93 -0.778,0.856 -1.918,3.481 -2.532,5.832 -0.609,2.352 -1.605,5.031 -2.211,5.953 -0.605,0.922 -1.484,3.532 -1.953,5.793 -0.472,2.266 -1.304,4.824 -1.851,5.696 -1.211,1.918 -2.172,6.675 -1.555,7.679 0.274,0.442 1.563,0.207 3.262,-0.594 1.547,-0.726 5.344,-1.695 8.437,-2.156 z m 851.625,163.614 c -0.824,-0.227 -1.902,-0.735 -2.39,-1.129 -0.489,-0.399 -3.36,-1.36 -6.375,-2.133 -8.489,-2.184 -17.328,-4.879 -18.985,-5.789 -0.824,-0.453 -4.031,-1.981 -7.125,-3.395 -4.054,-1.851 -7.613,-4.355 -12.75,-8.98 -11.832,-10.645 -25.5,-25.567 -25.5,-27.84 0,-0.551 -0.617,-1.559 -1.371,-2.242 -0.754,-0.68 -2.148,-3.012 -3.097,-5.176 -0.95,-2.168 -2.317,-5.121 -3.043,-6.563 -3.797,-7.566 -6.364,-18.515 -6.926,-29.566 -0.102,-2.031 -0.547,-3.809 -0.985,-3.953 -0.437,-0.145 -1.281,0.715 -1.875,1.91 -2.957,5.953 -6.902,12.797 -8.933,15.484 -1.246,1.649 -2.777,4.012 -3.406,5.25 -0.633,1.239 -2.301,3.77 -3.711,5.625 -1.414,1.856 -4.192,5.731 -6.172,8.61 -1.985,2.879 -7.488,9.14 -12.231,13.91 -7.726,7.766 -14.832,13.316 -21.375,16.695 -3.597,1.86 -8.511,3.535 -10.363,3.535 -0.941,0 -2.133,0.422 -2.648,0.938 -1.25,1.246 -21.911,1.32 -23.438,0.082 -0.578,-0.469 -2.906,-1.094 -5.176,-1.391 -2.269,-0.297 -7.5,-2 -11.625,-3.785 -6.574,-2.847 -8.261,-3.992 -13.687,-9.277 -3.403,-3.317 -6.188,-6.531 -6.188,-7.137 0,-0.609 -0.429,-1.375 -0.957,-1.707 -0.941,-0.59 -1.949,-1.941 -5.968,-8.004 -2.641,-3.984 -7.196,-13.547 -8.075,-16.949 -2.011,-7.816 -2.523,-9.551 -3.289,-11.199 -1.121,-2.418 -1.058,-54.309 0.071,-55.715 0.433,-0.539 1.007,-3.344 1.277,-6.231 0.605,-6.511 2.613,-18.238 3.465,-20.25 2.058,-4.875 1.144,-6.988 -1.817,-4.203 -0.922,0.867 -1.996,1.578 -2.382,1.578 -0.391,0 -3.176,1.856 -6.192,4.125 -3.015,2.266 -6.094,4.125 -6.84,4.125 -0.75,0 -1.824,0.559 -2.39,1.239 -0.563,0.683 -3.051,2.199 -5.528,3.371 -2.476,1.172 -6.355,3.191 -8.625,4.492 -2.269,1.297 -6.824,3.293 -10.125,4.434 -8.34,2.882 -12.496,4.39 -14.25,5.175 -0.824,0.368 -2.39,0.864 -3.48,1.098 -1.524,0.328 -2.07,0.988 -2.383,2.871 -2.172,13.141 -3.711,20.578 -4.602,22.223 -0.585,1.086 -1.652,3.953 -2.371,6.379 -1.761,5.949 -10.058,21.254 -15.421,28.453 -2.403,3.219 -4.368,6.129 -4.368,6.461 0,0.664 -4.621,6.722 -9.191,12.054 -1.594,1.856 -4.313,5.024 -6.039,7.043 -3.86,4.5 -9.656,10.289 -14.504,14.481 -4.141,3.582 -11.152,8.476 -12.141,8.476 -0.367,0 -3.175,1.161 -6.246,2.579 -3.07,1.418 -7.926,2.96 -10.793,3.429 -2.867,0.473 -6.41,1.199 -7.875,1.617 -1.465,0.422 -4.84,0.575 -7.5,0.344 -2.66,-0.23 -8.718,-0.734 -13.461,-1.117 -9.988,-0.805 -14.925,-1.773 -19.125,-3.754 -1.648,-0.777 -4.976,-2.312 -7.39,-3.41 -9.465,-4.309 -21.02,-15.77 -25.391,-25.188 -1.246,-2.683 -2.855,-6.058 -3.574,-7.5 -0.723,-1.445 -1.758,-4.484 -2.305,-6.75 -0.543,-2.269 -1.265,-4.445 -1.601,-4.839 -0.844,-0.977 -0.782,-42.864 0.066,-44.485 0.375,-0.715 1.262,-5.351 1.977,-10.301 0.711,-4.953 1.496,-9.339 1.75,-9.75 0.785,-1.285 2.32,-5.949 2.332,-7.078 0.007,-0.59 0.636,-2.445 1.402,-4.125 7.73,-16.965 11.359,-25.203 11.359,-25.789 0,-0.386 0.504,-1.121 1.125,-1.633 1.059,-0.878 7.125,-9.578 7.125,-10.218 0,-0.164 1.434,-2.352 3.188,-4.86 1.754,-2.508 3.695,-5.32 4.312,-6.246 0.618,-0.929 2.012,-3.008 3.098,-4.621 1.086,-1.613 4.371,-5.633 7.301,-8.93 2.933,-3.3 5.336,-6.269 5.34,-6.601 0.015,-0.777 4.871,-5.777 6.64,-6.832 0.75,-0.449 2.52,-1.574 3.93,-2.504 1.43,-0.934 3.73,-1.684 5.191,-1.684 5.078,0 8.762,3.657 10.121,10.051 0.469,2.18 0.469,2.18 4.383,-1.687 2.156,-2.129 4.223,-3.868 4.598,-3.868 0.371,0 1.375,-0.64 2.226,-1.425 4.215,-3.879 18.047,-5.614 28.676,-3.594 5.426,1.031 15.09,4.504 18.246,6.558 3.957,2.575 5.696,3.993 11.903,9.711 7.3,6.723 15.386,16.489 17.457,21.079 0.679,1.503 1.586,2.953 2.015,3.218 1.371,0.848 4.598,8.735 5.825,14.242 0.652,2.934 1.492,5.922 1.867,6.637 0.375,0.715 0.683,2.824 0.683,4.688 0,1.863 0.133,3.386 0.297,3.386 0.164,0 2.676,-1.015 5.582,-2.25 2.91,-1.238 5.832,-2.25 6.496,-2.25 0.664,0 3.469,-1.238 6.231,-2.746 2.762,-1.511 6.707,-3.578 8.769,-4.59 2.063,-1.015 4.426,-2.441 5.25,-3.167 0.825,-0.731 2.344,-1.567 3.375,-1.864 1.032,-0.293 3.836,-2.035 6.235,-3.871 2.402,-1.836 5.101,-3.621 6,-3.969 2.312,-0.886 18.511,-15.851 25.472,-23.531 3.262,-3.598 6.289,-7.726 6.871,-9.379 0.571,-1.621 1.95,-4.929 3.063,-7.351 1.117,-2.426 2.695,-5.926 3.516,-7.782 0.82,-1.859 2.468,-5.441 3.668,-7.968 1.195,-2.524 2.175,-4.934 2.175,-5.352 0,-0.418 2.153,-3.078 4.782,-5.906 4.781,-5.149 4.781,-5.149 10.113,-5.149 5.133,0 5.43,0.098 8.07,2.739 2.25,2.254 2.809,3.422 3.106,6.547 0.562,5.847 -0.551,9.375 -7.715,24.464 -0.981,2.063 -1.969,4.254 -2.196,4.875 -0.226,0.618 -1.589,2.641 -3.031,4.5 -1.441,1.856 -2.969,4.176 -3.394,5.161 -0.426,0.98 -1.442,2.726 -2.262,3.875 -0.82,1.152 -2.035,3.894 -2.699,6.089 -0.664,2.2 -1.707,5.125 -2.309,6.504 -0.605,1.379 -1.597,4.586 -2.207,7.125 -0.609,2.543 -1.414,5.293 -1.785,6.121 -1.273,2.829 -6.375,23.235 -7.129,28.5 -0.293,2.063 -0.777,4.086 -1.074,4.5 -1.309,1.805 -2.531,20.262 -2.586,39 -0.043,14.903 0.215,21.336 0.976,24.375 0.571,2.266 1.29,4.461 1.598,4.875 0.309,0.411 1.106,2.645 1.77,4.965 0.664,2.317 1.738,4.653 2.382,5.188 0.649,0.539 1.649,2.105 2.223,3.48 1.098,2.629 6.305,9.614 9.887,13.262 3.129,3.191 10.426,6.258 18.324,7.703 5.922,1.082 7.926,1.149 12.957,0.414 6.457,-0.941 10.34,-2.625 15.199,-6.59 1.719,-1.402 3.485,-2.547 3.922,-2.547 0.965,0 12.078,-11.179 12.078,-12.148 0,-0.375 1.86,-3.012 4.133,-5.859 2.27,-2.848 4.473,-5.954 4.891,-6.899 0.418,-0.945 1.773,-3.07 3.019,-4.719 5.192,-6.894 8.571,-12.476 13.625,-22.5 4.258,-8.453 9.383,-20.644 10.719,-25.5 0.68,-2.476 1.691,-5.554 2.242,-6.843 0.555,-1.289 1.574,-5.172 2.27,-8.625 0.695,-3.457 1.551,-6.957 1.902,-7.782 0.352,-0.828 1.145,-7.328 1.766,-14.449 0.679,-7.773 1.664,-14.457 2.468,-16.722 0.739,-2.075 2.458,-4.856 3.821,-6.176 2.273,-2.199 2.887,-2.403 7.285,-2.391 4.453,0.016 5,0.203 7.473,2.602 1.464,1.418 3.007,3.859 3.429,5.414 0.489,1.828 0.684,20.508 0.547,52.527 -0.215,49.695 -0.215,49.695 1.817,55.504 2.765,7.922 6.273,15.344 8.496,17.984 1.015,1.207 1.847,2.618 1.847,3.129 0,1.18 11.02,13.121 18.137,19.649 4.887,4.488 7.977,6.34 17.488,10.472 1.239,0.536 4.578,1.536 7.422,2.215 2.848,0.684 5.715,1.512 6.375,1.84 0.664,0.332 3.578,1.313 6.481,2.18 4.047,1.211 5.968,2.289 8.25,4.625 2.789,2.855 2.972,3.32 2.972,7.496 0,4.219 -0.164,4.617 -3.093,7.547 -2.524,2.523 -3.696,3.136 -6.375,3.336 -1.805,0.132 -3.957,0.062 -4.782,-0.16 z M 817.957,289.098 c 3.945,-0.453 7.484,-1.387 9.91,-2.618 2.078,-1.054 4.129,-1.914 4.563,-1.914 1.925,0 10.086,-6.57 16.949,-13.648 7.625,-7.863 16.066,-17.961 16.066,-19.219 0,-0.379 1.688,-2.804 3.75,-5.383 2.063,-2.582 3.75,-5.101 3.75,-5.605 0,-0.504 0.59,-1.449 1.313,-2.106 2.211,-2.007 10.535,-19.285 12.547,-26.039 1.043,-3.507 1.894,-7.097 1.894,-7.984 0,-0.883 -0.539,-1.812 -1.191,-2.062 -1.867,-0.715 -5.184,-0.532 -6.055,0.335 -0.512,0.516 -4.437,0.668 -11.211,0.438 -20.789,-0.707 -31.129,-2.492 -39.031,-6.738 -4.367,-2.344 -12.254,-8.164 -14.066,-10.375 -5.645,-6.887 -8.719,-11.649 -10.93,-16.93 -1.34,-3.195 -2.82,-6.621 -3.289,-7.609 -1.172,-2.465 -1.082,-16.922 0.129,-21.075 0.539,-1.855 1.523,-5.148 2.183,-7.316 0.66,-2.168 1.043,-4.102 0.848,-4.297 -0.195,-0.195 -1.672,1.41 -3.281,3.567 -1.606,2.156 -4.117,5.316 -5.578,7.023 -1.461,1.703 -3.598,4.574 -4.747,6.375 -1.152,1.801 -3.257,4.793 -4.683,6.648 -1.43,1.856 -2.957,4.219 -3.399,5.25 -0.441,1.032 -1.402,2.551 -2.132,3.375 -0.735,0.825 -2.258,3.188 -3.383,5.25 -3.438,6.289 -11.688,24.528 -11.688,25.84 0,0.68 -0.3,1.555 -0.664,1.946 -0.773,0.828 -3.086,9.855 -3.086,12.05 0,0.817 -0.347,1.836 -0.773,2.262 -1.469,1.469 -2.344,14.883 -2.098,32.117 0.203,14.192 0.465,17.688 1.465,19.535 0.668,1.239 2.188,4.43 3.375,7.098 2.871,6.453 9.504,13.219 16.031,16.352 7.383,3.539 12.379,4.855 20.625,5.422 4.125,0.285 8.008,0.566 8.625,0.628 0.618,0.063 3.887,-0.203 7.262,-0.593 z M 887.57,179.691 c 2.121,-0.566 2.262,-0.843 2.473,-4.777 0.348,-6.547 -2.262,-15.715 -6.043,-21.211 -1.129,-1.64 -2.055,-3.262 -2.055,-3.601 0,-1.997 -15.304,-18.536 -17.152,-18.536 -0.406,0 -1.316,-0.578 -2.023,-1.281 -1.77,-1.773 -8.852,-4.558 -13.942,-5.488 -2.332,-0.426 -5.633,-0.551 -7.332,-0.277 -2.601,0.414 -3.902,1.367 -8.277,6.05 -6.403,6.856 -8.442,11.563 -8.543,19.746 -0.063,4.817 0.262,6.336 2.258,10.575 1.468,3.125 3.949,6.578 6.73,9.379 2.426,2.437 5.25,4.804 6.281,5.261 7.145,3.172 11.551,4.418 17.25,4.883 7.489,0.609 27.137,0.141 30.375,-0.723 z"
         style="fill:#ffffff;fill-opacity:1;fill-rule:nonzero;stroke:none"
         id="path14" />
    </g>
  </g>
</svg>
