<svg width="261mm" height="121mm" viewBox="0 0 261 121" xmlns="http://www.w3.org/2000/svg"><g style="stroke:#fff;stroke-opacity:1"><g style="stroke:#fff;stroke-opacity:1" transform="rotate(-90 48 57.5)"><path style="fill:none;fill-opacity:1;stroke:#fff;stroke-width:1;stroke-linecap:round;stroke-linejoin:round;stroke-dasharray:none;stroke-opacity:1" d="M33 90H15M47 90h18"/><circle style="fill:none;fill-opacity:1;stroke:#fff;stroke-width:1;stroke-linecap:round;stroke-linejoin:round;stroke-dasharray:none;stroke-opacity:1" cx="40" cy="90" r="7"/><path style="fill:none;fill-opacity:1;stroke:#fff;stroke-width:1;stroke-linecap:round;stroke-linejoin:round;stroke-dasharray:none;stroke-opacity:1" d="M33 90h14"/></g></g><g style="stroke:#fff;stroke-opacity:1"><path style="fill:none;fill-opacity:1;stroke:#fff;stroke-width:1;stroke-linecap:round;stroke-linejoin:round;stroke-dasharray:none;stroke-opacity:1" d="M30.5 90H5M30.5 93h19v-6h-19v6" transform="translate(75.5 -49.5)"/><path style="fill:#000;fill-opacity:1;stroke:#fff;stroke-width:1;stroke-linecap:round;stroke-linejoin:round;stroke-dasharray:none;stroke-opacity:1" d="M49.5 90H75" transform="translate(75.5 -49.5)"/></g><g style="stroke:#fff;stroke-opacity:1"><path style="fill:none;fill-opacity:1;stroke:#fff;stroke-width:1;stroke-linecap:round;stroke-linejoin:round;stroke-dasharray:none;stroke-opacity:1" d="M136 80h19M124 80h-19M136 80l-12 6V74l12 6M136 74v12" transform="rotate(90 147.5 83)"/><g style="stroke:#fff;stroke-opacity:1"><path style="fill:none;fill-opacity:1;stroke:#fff;stroke-width:1;stroke-linecap:round;stroke-linejoin:round;stroke-dasharray:none;stroke-opacity:1" d="M130 80h7M135.5 81.5 137 80l-1.5-1.5" transform="rotate(30 176.905 124.432)"/></g><g style="stroke:#fff;stroke-opacity:1"><path style="fill:none;fill-opacity:1;stroke:#fff;stroke-width:1;stroke-linecap:round;stroke-linejoin:round;stroke-dasharray:none;stroke-opacity:1" d="M130 80h7M135.5 81.5 137 80l-1.5-1.5" transform="rotate(30 166.575 123.2)"/></g></g><path style="fill:none;stroke:#fff;stroke-width:1;stroke-linecap:round;stroke-linejoin:miter;stroke-dasharray:none;stroke-opacity:1" d="M80.5 90.5h70"/><g style="fill:#fff;stroke:#fff"><g style="fill:#fff;stroke:none"><path style="color:#000;fill:#fff;fill-rule:evenodd;stroke:none;stroke-width:.390591pt;-inkscape-stroke:none" d="m160 77.167-2.03-3.249h4.06z" transform="translate(10.5 -.158)"/><path style="color:#000;fill:#fff;fill-rule:evenodd;stroke:none;-inkscape-stroke:none" d="m157.5 73.658 2.5 4 .22-.353 2.28-3.647zm.938.52h3.125L160 76.676Z" transform="translate(10.5 -.158)"/></g><path style="fill:#fff;stroke:#fff;stroke-width:1;stroke-linecap:round;stroke-linejoin:round;stroke-dasharray:none;stroke-opacity:1" d="M162.5 53.658v20" transform="translate(8 1.842)"/></g><g style="fill:#fff;stroke:#fff"><g style="fill:#fff;stroke:none"><path style="color:#000;fill:#fff;fill-rule:evenodd;stroke:none;stroke-width:.390591pt;-inkscape-stroke:none" d="m160 77.167-2.03-3.249h4.06z" transform="translate(-94.5 -.158)"/><path style="color:#000;fill:#fff;fill-rule:evenodd;stroke:none;-inkscape-stroke:none" d="m157.5 73.658 2.5 4 .22-.353 2.28-3.647zm.938.52h3.125L160 76.676Z" transform="translate(-94.5 -.158)"/></g><path style="fill:#fff;stroke:#fff;stroke-width:1;stroke-linecap:round;stroke-linejoin:round;stroke-dasharray:none;stroke-opacity:1" d="M162.5 53.658v20" transform="translate(-97 1.842)"/></g><g style="fill:#fff;stroke:#fff"><g style="fill:#fff;stroke:none"><path style="color:#000;fill:#fff;fill-rule:evenodd;stroke:none;stroke-width:.390591pt;-inkscape-stroke:none" d="m160 77.167-2.03-3.249h4.06z" transform="rotate(-90 120.17 70.33)"/><path style="color:#000;fill:#fff;fill-rule:evenodd;stroke:none;-inkscape-stroke:none" d="m157.5 73.658 2.5 4 .22-.353 2.28-3.647zm.938.52h3.125L160 76.676Z" transform="rotate(-90 120.17 70.33)"/></g><path style="fill:#fff;stroke:#fff;stroke-width:1;stroke-linecap:round;stroke-linejoin:round;stroke-dasharray:none;stroke-opacity:1" d="M162.5 53.658v20" transform="rotate(-90 122.42 70.58)"/></g><circle style="fill:#fff;stroke:#fff;stroke-width:1;stroke-linecap:round;stroke-linejoin:round;stroke-dasharray:none;stroke-opacity:1" cx="80.5" cy="90.5" r="1"/><path style="fill:#fff;stroke:#fff;stroke-width:1;stroke-linecap:round;stroke-linejoin:round;stroke-dasharray:none;stroke-opacity:1" d="M80.5 90.5v10M75.5 100.5h10"/><text xml:space="preserve" style="font-size:11.2889px;line-height:1.25;font-family:'Source Sans Pro';-inkscape-font-specification:'Source Sans Pro';stroke-width:.264583" x="49.662" y="69.135"><tspan style="font-size:11.2889px;fill:#fff;stroke-width:.264583" x="49.662" y="69.135">5V</tspan></text><text xml:space="preserve" style="font-size:11.2889px;line-height:1.25;font-family:'Source Sans Pro';-inkscape-font-specification:'Source Sans Pro';stroke-width:.264583" x="175.959" y="69.406"><tspan style="font-size:11.2889px;fill:#fff;stroke-width:.264583" x="175.959" y="69.406">2.4V</tspan></text><text xml:space="preserve" style="font-size:11.2889px;line-height:1.25;font-family:'Source Sans Pro';-inkscape-font-specification:'Source Sans Pro';stroke-width:.264583" x="155.594" y="53.065"><tspan style="font-size:11.2889px;fill:#fff;stroke-width:.264583" x="155.594" y="53.065">20mA</tspan></text><text xml:space="preserve" style="font-size:11.2889px;line-height:1.25;font-family:'Source Sans Pro';-inkscape-font-specification:'Source Sans Pro';stroke-width:.264583" x="105.374" y="25.807"><tspan style="font-size:11.2889px;fill:#fff;stroke-width:.264583" x="105.374" y="25.807">2.6V</tspan></text><text xml:space="preserve" style="font-size:11.2889px;line-height:1.25;font-family:'Source Sans Pro';-inkscape-font-specification:'Source Sans Pro';stroke-width:.264583" x="74.035" y="112.173"><tspan style="font-size:11.2889px;fill:#fff;stroke-width:.264583" x="74.035" y="112.173">ref</tspan></text><g style="fill:#fff;stroke:none"><path style="color:#000;fill:#fff;fill-rule:evenodd;stroke:none;stroke-width:.390591pt;-inkscape-stroke:none" d="m160 77.167-2.03-3.249h4.06z" transform="translate(-9.5 -25.043)"/><path style="color:#000;fill:#fff;fill-rule:evenodd;stroke:none;-inkscape-stroke:none" d="m157.5 73.658 2.5 4 .22-.353 2.28-3.647zm.938.52h3.125L160 76.676Z" transform="translate(-9.5 -25.043)"/></g><g style="stroke:#fff;stroke-opacity:1"><path style="fill:none;fill-opacity:1;stroke:#fff;stroke-width:1;stroke-linecap:round;stroke-linejoin:round;stroke-dasharray:none;stroke-opacity:1" d="M136 80h19M124 80h-19M136 80l-12 6V74l12 6M136 74v12" transform="rotate(90 177.5 113)"/><g style="stroke:#fff;stroke-opacity:1"><path style="fill:none;fill-opacity:1;stroke:#fff;stroke-width:1;stroke-linecap:round;stroke-linejoin:round;stroke-dasharray:none;stroke-opacity:1" d="M130 80h7M135.5 81.5 137 80l-1.5-1.5" transform="rotate(30 206.905 236.393)"/></g><g style="stroke:#fff;stroke-opacity:1"><path style="fill:none;fill-opacity:1;stroke:#fff;stroke-width:1;stroke-linecap:round;stroke-linejoin:round;stroke-dasharray:none;stroke-opacity:1" d="M130 80h7M135.5 81.5 137 80l-1.5-1.5" transform="rotate(30 196.575 235.161)"/></g></g><g style="fill:#fff;stroke:#fff"><g style="fill:#fff;stroke:none"><path style="color:#000;fill:#fff;fill-rule:evenodd;stroke:none;stroke-width:.390591pt" d="m160 77.167-2.03-3.249h4.06z" transform="translate(70.5 -.158)"/><path style="color:#000;fill:#fff;fill-rule:evenodd;stroke:none" d="m157.5 73.658 2.5 4 .22-.353 2.28-3.647zm.938.52h3.125L160 76.676Z" transform="translate(70.5 -.158)"/></g><path style="fill:#fff;stroke:#fff;stroke-width:1;stroke-linecap:round;stroke-linejoin:round;stroke-dasharray:none;stroke-opacity:1" d="M162.5 53.658v20" transform="translate(68 1.842)"/></g><text xml:space="preserve" style="font-size:11.2889px;line-height:1.25;font-family:'Source Sans Pro';-inkscape-font-specification:'Source Sans Pro';stroke-width:.264583" x="235.959" y="69.406"><tspan style="font-size:11.2889px;fill:#fff;stroke-width:.264583" x="235.959" y="69.406">2.4V</tspan></text><text xml:space="preserve" style="font-size:11.2889px;line-height:1.25;font-family:'Source Sans Pro';-inkscape-font-specification:'Source Sans Pro';stroke-width:.264583" x="215.594" y="53.065"><tspan style="font-size:11.2889px;fill:#fff;stroke-width:.264583" x="215.594" y="53.065">20mA</tspan></text><g style="fill:#fff;stroke:none"><path style="color:#000;fill:#fff;fill-rule:evenodd;stroke:none;stroke-width:.390591pt" d="m160 77.167-2.03-3.249h4.06z" transform="translate(50.5 -25.043)"/><path style="color:#000;fill:#fff;fill-rule:evenodd;stroke:none" d="m157.5 73.658 2.5 4 .22-.353 2.28-3.647zm.938.52h3.125L160 76.676Z" transform="translate(50.5 -25.043)"/></g></svg>